<mxfile><diagram id="g-MgzxvW5Q7ugQlt8klh" name="Page-1"><mxGraphModel dx="1046" dy="896" grid="1" gridSize="10" guides="1" tooltips="1" connect="1" arrows="1" fold="1" page="1" pageScale="1" pageWidth="1100" pageHeight="850" math="0" shadow="0"><root><mxCell id="0"/><mxCell id="1" parent="0"/><mxCell id="6" value="" style="edgeStyle=orthogonalEdgeStyle;rounded=0;orthogonalLoop=1;jettySize=auto;html=1;" edge="1" parent="1" source="2" target="3"><mxGeometry relative="1" as="geometry"/></mxCell><mxCell id="2" value="Start CI Workflow" style="rounded=1;whiteSpace=wrap;html=1;" vertex="1" parent="1"><mxGeometry x="150" y="290" width="120" height="60" as="geometry"/></mxCell><mxCell id="5" value="Pass" style="edgeStyle=orthogonalEdgeStyle;rounded=0;orthogonalLoop=1;jettySize=auto;html=1;" edge="1" parent="1" source="3" target="4"><mxGeometry relative="1" as="geometry"/></mxCell><mxCell id="11" value="Fail" style="edgeStyle=orthogonalEdgeStyle;rounded=0;orthogonalLoop=1;jettySize=auto;html=1;exitX=0.5;exitY=0;exitDx=0;exitDy=0;entryX=1;entryY=0.5;entryDx=0;entryDy=0;" edge="1" parent="1" source="3" target="7"><mxGeometry x="-0.417" relative="1" as="geometry"><Array as="points"><mxPoint x="370" y="160"/><mxPoint x="270" y="160"/></Array><mxPoint y="-1" as="offset"/></mxGeometry></mxCell><mxCell id="3" value="Run install node modules" style="rounded=1;whiteSpace=wrap;html=1;" vertex="1" parent="1"><mxGeometry x="310" y="290" width="120" height="60" as="geometry"/></mxCell><mxCell id="12" value="Fail" style="edgeStyle=orthogonalEdgeStyle;rounded=0;orthogonalLoop=1;jettySize=auto;html=1;exitX=0.5;exitY=0;exitDx=0;exitDy=0;entryX=1;entryY=0.25;entryDx=0;entryDy=0;" edge="1" parent="1" source="4" target="7"><mxGeometry relative="1" as="geometry"/></mxCell><mxCell id="19" value="Pass" style="edgeStyle=orthogonalEdgeStyle;rounded=0;orthogonalLoop=1;jettySize=auto;html=1;" edge="1" parent="1" source="4" target="18"><mxGeometry relative="1" as="geometry"/></mxCell><mxCell id="4" value="Run ESLint Airbnb Linter" style="whiteSpace=wrap;html=1;rounded=1;" vertex="1" parent="1"><mxGeometry x="520" y="290" width="120" height="60" as="geometry"/></mxCell><mxCell id="8" value="Push code to dev branch" style="edgeStyle=orthogonalEdgeStyle;rounded=0;orthogonalLoop=1;jettySize=auto;html=1;" edge="1" parent="1" source="7" target="2"><mxGeometry relative="1" as="geometry"/></mxCell><mxCell id="7" value="Code and Use Linter and Jest via npm scripts on local" style="rounded=1;whiteSpace=wrap;html=1;" vertex="1" parent="1"><mxGeometry x="150" y="140" width="120" height="60" as="geometry"/></mxCell><mxCell id="17" value="" style="edgeStyle=orthogonalEdgeStyle;rounded=0;orthogonalLoop=1;jettySize=auto;html=1;" edge="1" parent="1" source="14" target="16"><mxGeometry relative="1" as="geometry"/></mxCell><mxCell id="14" value="Push code to dev branch" style="whiteSpace=wrap;html=1;rounded=1;" vertex="1" parent="1"><mxGeometry x="930" y="290" width="120" height="60" as="geometry"/></mxCell><mxCell id="24" value="" style="edgeStyle=orthogonalEdgeStyle;rounded=0;orthogonalLoop=1;jettySize=auto;html=1;" edge="1" parent="1" source="16" target="23"><mxGeometry relative="1" as="geometry"/></mxCell><mxCell id="16" value="Create Pull Request to main branch" style="whiteSpace=wrap;html=1;rounded=1;" vertex="1" parent="1"><mxGeometry x="930" y="425" width="120" height="60" as="geometry"/></mxCell><mxCell id="20" value="Pass" style="edgeStyle=orthogonalEdgeStyle;rounded=0;orthogonalLoop=1;jettySize=auto;html=1;" edge="1" parent="1" source="18" target="14"><mxGeometry relative="1" as="geometry"/></mxCell><mxCell id="21" value="Fail" style="edgeStyle=orthogonalEdgeStyle;rounded=0;orthogonalLoop=1;jettySize=auto;html=1;entryX=1;entryY=0.25;entryDx=0;entryDy=0;" edge="1" parent="1" source="18" target="7"><mxGeometry x="-0.2402" relative="1" as="geometry"><mxPoint x="780" y="135" as="targetPoint"/><Array as="points"><mxPoint x="780" y="155"/></Array><mxPoint as="offset"/></mxGeometry></mxCell><mxCell id="18" value="Run Test Job" style="whiteSpace=wrap;html=1;rounded=1;" vertex="1" parent="1"><mxGeometry x="720" y="290" width="120" height="60" as="geometry"/></mxCell><mxCell id="26" value="Pass" style="edgeStyle=orthogonalEdgeStyle;rounded=0;orthogonalLoop=1;jettySize=auto;html=1;" edge="1" parent="1" source="23" target="25"><mxGeometry relative="1" as="geometry"/></mxCell><mxCell id="30" value="Fail" style="edgeStyle=orthogonalEdgeStyle;rounded=0;orthogonalLoop=1;jettySize=auto;html=1;" edge="1" parent="1" source="23" target="29"><mxGeometry relative="1" as="geometry"/></mxCell><mxCell id="23" value="Run Deploy Job to Firebase" style="whiteSpace=wrap;html=1;rounded=1;" vertex="1" parent="1"><mxGeometry x="720" y="425" width="120" height="60" as="geometry"/></mxCell><mxCell id="28" value="" style="edgeStyle=orthogonalEdgeStyle;rounded=0;orthogonalLoop=1;jettySize=auto;html=1;" edge="1" parent="1" source="25" target="27"><mxGeometry relative="1" as="geometry"/></mxCell><mxCell id="25" value="Merge branch to main" style="whiteSpace=wrap;html=1;rounded=1;" vertex="1" parent="1"><mxGeometry x="520" y="425" width="120" height="60" as="geometry"/></mxCell><mxCell id="27" value="Deploy to Firebase Hosting" style="whiteSpace=wrap;html=1;rounded=1;" vertex="1" parent="1"><mxGeometry x="310" y="425" width="120" height="60" as="geometry"/></mxCell><mxCell id="29" value="Back to Coding on Local" style="whiteSpace=wrap;html=1;rounded=1;" vertex="1" parent="1"><mxGeometry x="720" y="565" width="120" height="60" as="geometry"/></mxCell></root></mxGraphModel></diagram></mxfile>